<?xml version="1.0" encoding="utf-8"?>
<!-- Generator: Adobe Illustrator 27.8.1, SVG Export Plug-In . SVG Version: 6.00 Build 0)  -->
<svg version="1.1" id="Layer_1" xmlns="http://www.w3.org/2000/svg" xmlns:xlink="http://www.w3.org/1999/xlink" x="0px" y="0px"
	 viewBox="0 0 25 18" style="enable-background:new 0 0 25 18;" xml:space="preserve">
<style type="text/css">
	.st0{fill:#242D52;}
</style>
<path class="st0" d="M1.5,0h22C24.3,0,25,0.7,25,1.5v0C25,2.3,24.3,3,23.5,3h-22C0.7,3,0,2.3,0,1.5v0C0,0.7,0.7,0,1.5,0z M1.5,7.5
	h22C24.3,7.5,25,8.2,25,9v0c0,0.8-0.7,1.5-1.5,1.5h-22C0.7,10.5,0,9.8,0,9v0C0,8.2,0.7,7.5,1.5,7.5z M1.5,15h22
	c0.8,0,1.5,0.7,1.5,1.5v0c0,0.8-0.7,1.5-1.5,1.5h-22C0.7,18,0,17.3,0,16.5v0C0,15.7,0.7,15,1.5,15z"/>
</svg>
